<svg version="1" xmlns="http://www.w3.org/2000/svg" width="3200" height="3200" viewBox="0 0 2400.000000 2400.000000"><path d="M1689.9 122.4c-.2.2-5.3.6-11.4 1-6 .3-12.8.8-15 1-2.2.2-7.4.7-11.5 1.1-4.1.4-8.8.9-10.5 1.1-1.6.2-5.2.6-8 .9-2.7.3-6.1.8-7.5 1-1.4.2-4.5.6-7 1-8.4 1.2-10.5 1.6-16 2.5-3 .5-7.1 1.2-9 1.5-6 1-27 5.5-40 8.6-75.5 17.9-157.2 53.3-222 96.4-41.6 27.6-68.9 50.8-102.2 87-19.2 20.8-43.4 55.6-54.3 77.9-2.5 5.1-3 5.6-3.6 3.8-3.4-9.2-25.1-43-38.5-59.9-17.3-21.9-43.8-49.3-62.4-64.3-3-2.5-6.4-5.3-7.5-6.4-4.6-4.2-29.1-22-43-31.2-17.4-11.5-16.1-10.6-29-18-5.5-3.1-11.1-6.4-12.5-7.3-4.1-2.8-41.5-21.3-54.5-27.1-50.4-22.2-99-37-154.5-47-6.7-1.2-7.2-1.3-15.5-2.5-2.7-.3-6.3-.9-8-1.1-1.6-.3-4.1-.7-5.5-.9-2.4-.3-8.8-1-19-2.1-2.5-.2-6.5-.6-9-.8-26.3-2.7-86.6-2.8-113-.1-2.5.2-7.2.7-10.5 1-8 .8-17.4 2-24.5 3-13.4 1.9-16.9 2.5-23.5 3.6-9 1.5-9.1 1.5-22.5 4.4-46.3 9.8-89.6 24-134 43.8-14.2 6.3-43.8 21.2-52.8 26.6-2.9 1.7-5.5 3.1-5.7 3.1-.3 0-2.8 1.5-5.8 3.2-7.7 4.8-8.8 5.5-13.7 8.4-26.3 15.8-67.3 46.3-93.2 69.5-27.1 24.2-60.3 59.5-79.6 84.6C98 437 76.3 473.4 52.2 527c-7.3 16.4-17.3 43.8-24.6 67.5-6.4 21.2-7 23.2-10.6 39-2.6 11.7-2.5 10.9-5.5 26-2.8 14.1-3 15.5-4 23-.3 2.7-.8 5.7-1 6.5-.3.8-.7 4.2-1.1 7.4-.3 3.3-.8 6.9-1 8-.2 1.2-.7 5.2-1 9.1-.3 3.8-.7 8.3-.9 10-2.7 20.9-2.7 93.3 0 112 .2 1.6.7 5.9 1 9.5.3 3.6.8 7.8 1 9.5.3 1.6.7 4.6.9 6.5 1.8 13.5 2.8 20.5 3.1 21 .2.3.6 2.6 1 5 1.9 14.2 10.6 51.1 16.6 70.5 6.3 20.4 15.9 46.9 20.7 57.5 1.1 2.5 3.7 8.3 5.7 13 5.1 11.6 19.6 40.2 26.8 53 39.2 69.2 86.7 128.8 150.7 189 7.3 6.9 14 13.2 14.9 14.1 4.3 4 26.7 23.5 35.6 30.9 5.5 4.5 11.8 9.7 14 11.6 36.9 30.9 100.8 76 176.5 124.6 11.8 7.6 22.2 14.2 23 14.8 5.7 3.8 18.9 12.1 49 30.8 19 11.8 36.9 22.9 39.7 24.8 2.9 1.9 5.5 3.4 5.8 3.4.3 0 1.1.5 1.8 1 .7.6 15.2 9.7 32.2 20.3 41.8 26 99.8 63.6 108 70.1 1.1.9 7.2 5.2 13.5 9.7 23.1 16.4 61.4 46.2 71.7 55.8 1.8 1.6 4.2 3.6 5.2 4.3 1.1.8 6.1 5.2 11.2 9.8 5.1 4.7 11.7 10.7 14.7 13.5 10 9.1 39.5 38.8 50.2 50.5 5.7 6.3 10.7 11.7 11 12 .5.5 9.4 10.9 12.6 14.9 1 1.3 2.4 2.8 2.9 3.5 5.7 6.3 16.6 20.4 27.9 35.6 7.5 10.2 14 18.9 14.4 19.5.4.5 5.5 8.2 11.3 17 60.6 91.7 102.9 190.9 133.3 312.2 3 12.2 5.7 23.2 6 24.5.2 1.3 1.2 5.4 2.1 9.3.9 3.8 1.8 7.7 2 8.5.2.8 2 8.2 4 16.5 2 8.2 3.8 16 4.1 17.3.2 1.3 1.5 5.6 2.9 9.6 4.8 15 9.1 20 13.6 16 1.2-1 3.2-4.4 4.6-7.4 2.3-5.1 6.7-21.1 7.7-27.5.9-5.8 1.8-12 2.1-13.7.2-.9.6-4.8 1-8.5.3-3.7.8-9.1 1-11.8.3-2.8.7-11.4 1-19.3l.5-14.3 3.4-4.2c6.3-7.8 10.2-14.9 44.8-82.7 5.8-11.3 11.8-22.8 13.3-25.5 1.5-2.8 5.2-9.5 8.3-15 3-5.5 9.4-16.5 14.1-24.5 4.7-8 8.8-15 9-15.5.2-.6 2.2-3.7 4.3-6.9 2.1-3.2 4.6-7.2 5.5-8.9.8-1.7 1.9-3.5 2.4-4.1.5-.6 5.9-8.7 12.1-18.1 12.3-18.8 26.4-38.6 40.7-57.5 9.8-12.9 31.1-39.5 35.2-44.1 1.3-1.4 5-5.6 8.3-9.5 25.5-30.1 79.3-84.7 105.1-106.5 2.2-1.9 4.2-3.7 4.5-4 .5-.5 14.8-13.1 20-17.5 1.4-1.2 4.8-4.1 7.6-6.5 35.9-30.9 80.8-64.8 122.2-92.2 25.3-16.8 87-54.7 116.7-71.7 1.7-.9 5.5-3.2 8.5-5 3-1.8 6.9-4.1 8.5-5 1.7-.9 8.9-5.2 16-9.5 7.2-4.3 14.4-8.6 16-9.5 3.8-2.1 56.7-34.6 69.5-42.7 29.2-18.3 80.6-52.2 104-68.6 5.2-3.7 10.2-7.1 11-7.7 7.2-4.9 54.4-38.3 55-39 .3-.3 6.8-5.2 14.5-10.9 17.6-13.2 45.2-35.1 56.1-44.6.7-.6 3.2-2.7 5.5-4.7 15.2-12.8 25.2-21.7 40.4-35.8 9.2-8.6 47.4-46.7 55-55 27.7-30.2 55.5-64.2 74.6-91.4 4.3-6.1 21.2-31.6 26-39.3 14.5-22.9 36.9-66.1 47.9-92.3 2.9-6.9 5.8-13.9 6.5-15.5 6.2-14.3 21.4-59.6 24-71.5.2-.8 1.1-4.2 1.9-7.5 4.2-15.7 9.3-40 12-57 2-12.8 2.5-16.5 3.1-23.5.3-3 .7-6.9 1-8.5 2.7-19.8 2.7-85 0-110-1.3-11.3-2.7-23.1-3-25.4-.2-1.3-.7-4.5-1.1-7-9.3-68.5-38.2-152.7-73.2-213.1-3.1-5.2-6-10.4-6.6-11.5-1.4-2.4-1.9-3.3-12.9-20.5-6.9-10.9-23.6-34.8-27.4-39.5-.5-.6-2.6-3.3-4.8-6-4.4-5.5-17.4-21.4-19-23.1-.5-.6-5-5.7-10-11.2-10.1-11.4-35.6-36.7-48.5-48.3-27-24.1-46-38.7-78-60-18.2-12.1-19.3-12.7-30-19.1-10.7-6.4-32.6-18.4-37.5-20.7-1.1-.5-9.2-4.3-18-8.5-18.6-8.9-17.3-8.3-29.5-13.5-41.3-17.3-79.6-29.2-128.8-40-15.7-3.5-49.9-9-66.3-10.6-3.5-.4-7.5-.8-8.9-1-1.4-.1-6.8-.6-12-1s-11.1-1-13-1.2c-4.7-.5-78.6-1.3-79.1-.9zm20.6 117c5 .3 11 .8 13.5 1 2.5.3 7.4.7 11 1.1 6.7.6 21.6 2.3 26 3 1.4.2 6.1.9 10.5 1.5s13.4 2.2 20.1 3.5c6.6 1.3 13.1 2.6 14.5 2.9 6.2 1.2 16.5 3.5 17.9 4 .8.3 2.6.8 4 1 1.4.3 4.1 1 6 1.5 1.9.5 6.2 1.7 9.5 2.5 13.5 3.7 48.8 15.4 56 18.6 1.1.5 6.1 2.6 11 4.5 41 16.5 88.7 42.7 123.5 67.8 10.7 7.7 11.1 8 17 12.7 3.2 2.5 7.3 5.7 9.1 7.2 1.9 1.4 4.5 3.6 5.9 4.8 17.8 15.2 21.8 18.8 36.5 33.6 24.6 24.7 42 45.6 60.6 72.9 16.8 24.6 35.8 59.3 45.4 82.7 1.4 3.5 3 7.2 3.5 8.3 7.6 16.7 22.7 64.2 25.4 80 .3 1.6 1 4.6 1.6 6.5 2 6.8.9 5.4-3.1-4-8.2-19.5-21.8-47.5-29.8-61.4-2.8-4.9-5.1-9-5.1-9.2 0-1-14.9-24.1-26.1-40.4-13.9-20.3-38.8-49.1-61.9-71.6-6.9-6.7-15-14.3-18-16.9-3-2.6-6.8-5.9-8.5-7.4-9.8-8.6-34.3-27.2-45.5-34.6-2.5-1.7-4.9-3.4-5.5-3.8-4.3-3.4-30.2-19-43-25.9-14.2-7.7-52.1-25.8-54.1-25.8-.3 0-2.9-1.1-5.7-2.4-2.9-1.3-6.3-2.7-7.7-3.1-1.4-.4-3.8-1.3-5.5-2-1.6-.8-5.9-2.3-9.5-3.5-3.6-1.2-7.2-2.5-8-2.8-.8-.3-1.7-.6-2-.7-.3-.1-4.9-1.6-10.3-3.3-11.1-3.7-36.7-10.8-41.7-11.7-1.8-.3-3.6-.8-4-1-.4-.2-8.7-2-18.6-4-15.3-3-23.1-4.4-33.9-6-1.1-.1-5.4-.8-9.5-1.4-4.1-.6-10.4-1.3-14-1.6-3.6-.3-7.6-.7-9-1-1.4-.2-7.1-.7-12.7-1-5.6-.4-12.6-.9-15.5-1-7.2-.5-58.1-.5-64.3-.1-2.7.3-9.5.7-15 1.1-5.5.3-11.3.7-13 .9-1.6.2-6.1.7-10 1.1-3.8.4-7.7.9-8.6 1-.9.2-4 .6-7 1-9.7 1.1-13.4 1.6-14.9 2-.8.2-3.5.7-6 1-7.4 1-29.8 5.5-41 8.1-5.8 1.4-11.4 2.7-12.5 3-8.6 1.7-45.6 12.9-61 18.4-39.9 14.3-87 36.8-123.5 59-29.9 18.2-78 53.1-100 72.5-10.5 9.3-21 20.5-25.4 27.3-5.4 8.1-9.9 11.2-16.4 11.2-5.9 0-19.1-5.8-29.9-13.1-2.3-1.6-4.6-2.9-5.1-2.9-.6 0-1.2-.3-1.4-.8-.2-.4-2.8-2.4-5.8-4.4-7.9-5.2-23.6-16.6-59.4-43-13.4-9.9-50.3-34.5-64.6-43-18-10.8-35.7-20.4-50-27.4-5.2-2.5-10.7-5.2-12.1-5.9-9.2-5-39.9-17.5-59.9-24.4-26.4-9.2-43.6-13.9-75.1-20.6-1.8-.4-24.8-4.1-29.9-4.9-3.4-.5-16.7-2.1-25.9-3-24.6-2.7-74.3-2.7-105.1-.1-6.5.5-21.4 2.1-27.5 2.9-11.1 1.5-13.7 1.9-22 3.2-14 2.3-14.7 2.5-19 3.4-2.2.5-5.3 1.1-7 1.4-5.4 1-6.8 1.4-23.5 5.6-14.3 3.7-39.3 11.3-45.5 13.9-1.1.4-6.9 2.7-13 5.1-31.4 12.2-68.2 31.6-96.5 50.8-9.5 6.5-23.1 16.2-24 17.2-.3.3-3.2 2.5-6.5 5s-6.2 4.7-6.5 5c-.3.3-3 2.5-6 5-22.5 18.2-59.4 54-77 74.6-11.3 13.3-18.8 22.6-26.1 32.4-10.7 14.2-21.9 30.6-21.9 32 0 .5-.4 1-1 1-.5 0-1 .4-1 .8 0 .5-2.6 5.1-5.7 10.3-7.9 13.2-21.3 40.1-27.2 55-4.7 11.9-12.9 35.2-13.6 38.9-.2 1-1.2 4.8-2.4 8.6-1.1 3.8-2.2 8.2-2.5 9.9-.3 1.6-1 4.5-1.5 6.3-.5 1.8-1 3.5-1 3.7 0 .3-.5 2.9-1 5.8-1.3 6.3-1.6 7.9-2.6 13.7-.4 2.5-.9 5.4-1.1 6.5-.3 1.1-.9 5.4-1.5 9.5-.5 4.1-1.2 9.3-1.5 11.5-.3 2.2-.7 6-.9 8.5-.2 2.5-.7 8.8-1.2 14-.4 5.2-.8 24.8-.8 43.5 0 36.8.7 52 3.5 74.5 1.8 14.1 2.2 17.5 2.6 19.5.2 1 .6 3.5.9 5.5.3 2 .7 4.7 1 6 .3 1.4 1 5.2 1.6 8.5.8 4.8 4.2 19.4 7.4 32.5 5 20.3 19.3 58.5 29 77.7 4.4 8.8 4.3 9.8-.3 3-14.4-21.1-18.2-26.7-18.2-27.1 0-.3-1.3-2.4-2.9-4.8-8.4-12.7-26.1-46-34.1-64.3-17.9-41.3-31-89.4-35.5-131-.4-3.3-.8-7-1-8.3-2.6-16.5-2.6-80 0-98.2.2-1.4.6-5.2 1-8.5 2.5-23.1 7.7-50.4 14.2-74.5 4.5-17.2 14.1-46.3 17.8-54.5.8-1.7 2.4-5.5 3.5-8.5 5.8-14.9 18.2-39.7 31.3-62.3 7-12.2 33.1-50.4 36.7-53.7.3-.3 5-5.9 10.5-12.4 5.4-6.6 12.6-14.9 15.9-18.5 8.4-9.1 30.4-30.7 36.2-35.7 2.7-2.3 6.2-5.4 7.8-6.8 3.3-3.2 24.4-20.2 33.1-26.8 12.5-9.4 43.8-29.9 57.8-37.7 2-1.2 5.4-3.1 7.5-4.3 8.5-4.9 41.5-20.9 52.2-25.3 6.3-2.6 12.4-5.1 13.5-5.6 7.3-3.1 14.5-5.7 14.5-5.2 0 .3.6.1 1.3-.4 1.5-1.3 36-12.3 43.2-13.9.6-.1 3-.7 5.5-1.4s5.3-1.4 6.2-1.6c1-.2 2.6-.6 3.5-.8 5-1.2 20.1-4.5 22.3-4.9 1.4-.3 6.3-1.2 11-2 4.7-.9 10.5-1.9 13-2.2 2.5-.3 5.2-.8 6-1 .8-.2 4.4-.7 8-1 3.6-.4 7.2-.9 8.1-1 .9-.2 5.2-.6 9.5-1s8.6-.9 9.5-1c11.8-2.2 82.4-2.2 99.8 0 1.4.1 6 .6 10.1 1s8.9.9 10.5 1.1c1.7.2 5.5.6 8.5.9 3 .4 6.2.8 7 1 .8.3 3.7.7 6.4 1 11.6 1.4 40.1 7.3 58.6 12.1 89.8 23.4 168.5 62.1 237 116.7 8.9 7.1 20 16.5 37.1 31.8 1.7 1.5 17.9 16.5 27.8 25.7 13.6 12.8 26.3 21.2 31.8 21.2 5.6 0 5.9-1 2.9-10.7-1.5-4.8-3.7-11.2-4.9-14.2l-2.2-5.3 2.5-2c1.4-1.1 3.7-2.9 5.2-4.1 1.4-1.2 4.3-3.6 6.4-5.2 3.1-2.4 14.9-12.1 25.9-21.3 13.1-10.9 50.4-39.2 56.3-42.7.9-.6 7.1-4.6 13.7-9 31.9-21 70.9-41.7 109.4-57.9 43.7-18.4 98.2-35 141.1-43.1 1.4-.3 3.6-.7 5-1 1.4-.2 3.9-.7 5.5-.9 1.7-.3 7.1-1.2 12-2.1 5-.8 11.3-1.7 14-2 2.8-.3 5.9-.7 7-.9 1.1-.2 5.2-.7 9-1 3.9-.4 8.8-.9 11-1.2 6.1-.7 14.6-1.3 30-2 7.7-.3 14.1-.7 14.2-.9.5-.4 49 .4 57.8.9z"/></svg>